<svg xmlns="http://www.w3.org/2000/svg" height="425.002" width="250.006"><defs><clipPath id="a"><path d="M-420.39-343.392l7.777-7.815 7.778 7.815-7.778 7.815z"/></clipPath></defs><g font-size="23.686" letter-spacing="0" word-spacing="0" fill="#333" font-family="VomZom"><path d="M8.254 6.616c4.01-.092 7.776 3.17 8.2 7.17.506 3.516-1.562 7.167-4.802 8.593-1.964.974-4.18.674-6.292.724H3.296v6.61H.03c.006-5.1-.013-10.2.01-15.3.107-3.8 3.218-7.202 6.974-7.708.41-.06.826-.09 1.24-.09zm0 13.22c2.357.058 4.568-1.78 4.92-4.116.47-2.35-1.03-4.876-3.322-5.58-2.214-.787-4.878.247-5.96 2.338-.838 1.43-.54 3.117-.596 4.69v2.668h4.958zm9.776-13.3h3.23v16.488h-3.23V6.536zm12.94 10.37h.116l4.593 6.124h4.003l-6.242-8.48 5.536-8.006h-4.004l-3.886 5.652h-.117l-3.887-5.652H23.08l5.533 8.007-6.24 8.478h4.003z"/><path d="M47.003 6.536c3.272-.064 6.41 2.08 7.622 5.106.63 1.406.62 2.963.6 4.472v6.91c-2.915-.01-5.832.02-8.75-.016-3.35-.163-6.416-2.607-7.375-5.815-.88-2.787-.15-6.025 1.922-8.11 1.547-1.6 3.745-2.566 5.978-2.545zm4.958 13.22c-.013-1.833.03-3.668-.024-5.5-.193-2.456-2.468-4.514-4.933-4.45-2.344-.057-4.553 1.76-4.92 4.08-.43 2.228.85 4.654 2.974 5.485 1.31.57 2.756.334 4.14.384h2.766zm13.106-13.14c3.87-.095 7.487 2.95 8.103 6.76.7 3.614-1.34 7.516-4.706 9.003-3.287 1.55-7.514.55-9.774-2.29-1.4-1.65-2.005-3.847-1.886-5.986V.007h3.268v6.61h4.995zm0 13.22c2.482.066 4.75-2.018 4.933-4.487.31-2.455-1.51-4.923-3.938-5.37-1.343-.185-2.707-.06-4.06-.1h-1.93c.02 1.865-.045 3.73.038 5.59.26 2.46 2.484 4.41 4.957 4.36zm17.708-13.3c3.272-.064 6.41 2.08 7.622 5.106.632 1.406.623 2.963.603 4.472v6.91c-2.917-.01-5.834.02-8.75-.016-3.35-.163-6.418-2.607-7.377-5.815-.88-2.787-.15-6.025 1.922-8.11 1.545-1.6 3.743-2.566 5.976-2.545zm4.957 13.22c-.013-1.833.03-3.668-.023-5.5-.19-2.456-2.466-4.514-4.93-4.45-2.345-.057-4.554 1.76-4.92 4.08-.43 2.228.85 4.654 2.973 5.485 1.308.57 2.754.334 4.137.384h2.765zm21.256-13.18c-.006 5.088.014 10.176-.01 15.263-.118 4.003-3.56 7.602-7.576 7.81-.763.04-1.528.015-2.292.02v-3.266c1.395-.007 2.886.135 4.12-.655 1.544-.867 2.524-2.613 2.49-4.378-2.897 2.337-7.387 2.216-10.204-.195-2.053-1.657-3.174-4.322-3.016-6.945V6.577h3.268c.015 2.91-.03 5.823.024 8.732.177 2.35 2.235 4.355 4.59 4.473 2.428.25 4.818-1.58 5.24-3.98.184-1.343.06-2.71.097-4.064V6.58h3.27z"/></g><path d="M166.66 15.096l-4.43-4.45c1.853-2.466 1.626-6.213-.486-8.455-2.03-2.276-5.65-2.88-8.283-1.33-2.53 1.41-3.94 4.56-3.254 7.397.646 2.963 3.47 5.294 6.51 5.25 1.4.007 2.8-.45 3.934-1.273 1.503 1.505 2.996 3.02 4.508 4.52.913.81 2.497-.553 1.618-1.532l-.113-.127zm-9.89-3.178c-2.61.072-5.013-2.18-5.137-4.8-.205-2.46 1.575-4.91 3.99-5.408 2.33-.555 4.947.734 5.87 2.968 1.007 2.26.148 5.197-2 6.462-.81.507-1.765.783-2.722.778z" fill="#fff"/><path d="M51.992 103.932c-1.083 0-1.965-.88-1.965-1.965 0-1.083.884-1.965 1.967-1.965 1.083 0 1.966.882 1.966 1.965 0 1.084-.882 1.965-1.966 1.965zm6.924 0c-1.083 0-1.965-.88-1.965-1.965 0-1.084.883-1.965 1.967-1.965s1.967.88 1.967 1.965c0 1.084-.882 1.965-1.965 1.965zm7.146 0c-1.084 0-1.966-.88-1.966-1.965 0-1.084.882-1.965 1.966-1.965s1.965.88 1.965 1.965c0 1.084-.88 1.965-1.963 1.965zm150.594-88.836l-4.43-4.45c1.853-2.466 1.626-6.213-.486-8.455-2.03-2.276-5.65-2.88-8.283-1.33-2.53 1.41-3.942 4.56-3.255 7.397.646 2.963 3.47 5.294 6.51 5.25 1.4.007 2.8-.45 3.934-1.273 1.503 1.505 2.996 3.02 4.507 4.52.913.81 2.497-.553 1.618-1.532l-.112-.127zm-9.89-3.178c-2.61.072-5.013-2.18-5.137-4.8-.206-2.46 1.574-4.91 3.99-5.408 2.33-.555 4.946.734 5.87 2.968 1.006 2.26.147 5.197-2 6.462-.81.507-1.766.783-2.723.778z" fill="#636363"/><path d="M68.484 251.78c-.68.3-1.41.505-2.175.596.78-.47 1.382-1.21 1.664-2.095-.732.433-1.542.748-2.404.918-.69-.736-1.675-1.196-2.764-1.196-2.445 0-4.242 2.28-3.69 4.65-3.146-.157-5.937-1.665-7.804-3.956-.992 1.702-.515 3.93 1.172 5.056-.62-.018-1.205-.19-1.716-.473-.04 1.754 1.217 3.394 3.038 3.76-.533.145-1.117.18-1.71.065.48 1.505 1.88 2.6 3.537 2.63-1.592 1.247-3.597 1.805-5.606 1.568 1.678 1.076 3.668 1.703 5.807 1.703 7.03 0 11.003-5.938 10.763-11.264.738-.534 1.38-1.2 1.888-1.96z" fill="#555"/><path d="M110.526 202.36c1.047 0 1.985-.57 2.626-1v8.145c-.64.43-1.58 1-2.625 1s-1.982-.31-2.623-.74c-.64-.432-1.58-.742-2.625-.742-1.046 0-1.983.534-2.625.965v-8.144c.64-.43 1.58-.962 2.625-.962s1.985.31 2.626.74c.64.43 1.58.74 2.624.74zm-9.624-2.356c.483 0 .875.392.875.875v13.124h-1.75V200.88c0-.484.394-.876.877-.876z" fill="#fff"/><path d="M100.026 100.002h22v2h-22zm0 7h22v2h-22zm0 7h22v2h-22z" fill="#636363"/><g fill="#fff"><path d="M.026 64.002h15v2h-15zm5-14h5v8h-5z"/><path clip-path="url(#a)" transform="translate(420.138 399.002)" d="M-420.11-342h15v10.048h-15z"/></g><g fill="#fff"><path d="M105.314 62.67c-.486.074-.97.17-1.456.227-.664.04-1.29-.497-1.36-1.157l-.11-.722c-.757.76-1.522 1.514-2.274 2.28-.212.256-.007.675.32.684l1.36.254c.096.493.18.987.28 1.478.093.32.554.388.747.123l2.878-2.877c-.122-.102-.21-.278-.384-.29z"/><path d="M109.393 62.15c.52.057 1.036.23 1.558.193.5-.094.63-.62.66-1.055.116-.502.02-1.183.58-1.436.446-.253.954-.41 1.343-.74.35-.37.143-.875-.085-1.245-.195-.466-.66-.94-.392-1.47.216-.475.542-.912.666-1.42.064-.505-.4-.79-.8-.955-.443-.266-1.12-.385-1.19-.997-.1-.5-.092-1.03-.287-1.503-.248-.446-.79-.406-1.21-.303-.505.04-1.1.34-1.52-.083-.383-.35-.697-.79-1.136-1.068-.48-.234-.877.19-1.17.513-.373.34-.71.92-1.3.764-.494-.055-.986-.223-1.484-.182-.5.097-.627.624-.66 1.058-.114.502-.017 1.184-.58 1.437-.443.25-.952.407-1.34.74-.35.37-.143.873.085 1.242.196.466.663.94.393 1.47-.216.474-.54.91-.666 1.42-.062.505.4.79.8.955.445.265 1.123.384 1.19.997.1.5.094 1.03.29 1.503.244.446.785.405 1.21.302.502-.04 1.097-.34 1.52.08.38.35.694.788 1.132 1.068.51.244.905-.236 1.22-.566.344-.306.635-.827 1.173-.722zm-2.103-.707c-2.212.033-4.28-1.67-4.688-3.84-.467-2.093.675-4.39 2.614-5.294 1.88-.963 4.345-.43 5.692 1.19 1.462 1.63 1.557 4.273.216 6.005-.884 1.2-2.342 1.945-3.834 1.942z"/><path d="M107.29 52.52c-2.255.013-4.085 1.85-4.085 4.11 0 2.254 1.83 4.092 4.083 4.106 2.255-.014 4.085-1.85 4.085-4.108 0-2.258-1.83-4.095-4.086-4.11zm7.138 10.734l-2.236-2.236c-.06.335-.08.68-.178 1.007-.207.608-.894.988-1.52.845l-1.228-.2c-.174.014-.262.187-.384.29l2.92 2.92c.236.26.71.08.726-.267.086-.457.17-.916.257-1.374.49-.096.985-.18 1.476-.28.295-.09.39-.49.167-.704z"/></g><g fill="#fff"><path d="M61.67 357.68h-.543c-.077 0-.142.025-.192.076-.05.05-.076.117-.076.197v2.744c0 .377-.133.7-.398.968s-.584.404-.956.404h-7.04c-.373 0-.69-.135-.957-.404-.268-.27-.398-.59-.398-.967v-7.13c0-.377.133-.7.398-.968.265-.267.585-.404.957-.404h5.957c.08 0 .144-.026.195-.077.05-.052.075-.117.075-.197v-.55c0-.08-.026-.145-.076-.197-.05-.05-.117-.077-.196-.077h-5.958c-.67 0-1.244.24-1.72.723-.477.483-.716 1.064-.716 1.744v7.13c0 .678.24 1.26.715 1.742.476.482 1.05.723 1.72.723h7.04c.67 0 1.245-.24 1.72-.724.478-.483.717-1.065.717-1.744v-2.742c0-.08-.026-.145-.077-.197-.05-.05-.115-.077-.194-.077z"/><path d="M65.026 350.165c-.106-.11-.233-.163-.38-.163h-4.33c-.148 0-.275.054-.382.163-.107.108-.16.237-.16.385 0 .148.053.277.16.386l1.49 1.508-5.517 5.587c-.054.056-.082.12-.082.196 0 .074.028.14.084.197l.965.976c.056.056.12.084.194.084.073 0 .14-.028.194-.086l5.516-5.587 1.49 1.51c.107.11.234.163.38.163s.274-.055.382-.163c.107-.11.16-.237.16-.386v-4.387c0-.148-.053-.277-.16-.385z"/></g><path d="M207.026 250.64c-3.515 0-6.365 2.438-6.365 5.447 0 1.57.78 2.98 2.02 3.973-.232.635-.627 1.464-1.3 2.312 1.274 0 2.91-.176 4.173-.99.474.097.966.152 1.474.152 3.518 0 6.368-2.44 6.368-5.447s-2.85-5.447-6.366-5.447z" fill="none" stroke="#fff" stroke-width="1.268"/><g fill="#fff"><path d="M163.152 352.574v8.57h-10.5v-8.57h10.5m.875-.857h-12.25v10.285h12.25v-10.285zm-14-1.715v10.286h.877v-9.428h11.375v-.858z"/><path d="M152.34 352.234h11.06v9.394h-11.06z"/></g><g fill="#666"><path d="M204.046 150h4.02v6.554h-4.02z"/><path clip-path="url(#a)" transform="matrix(.8037 0 0 .77824 537.672 422.16)" d="M-420.11-342h15v10.048h-15z"/></g><path d="M212.633 129.612l-3.168 3.052.72 4.338-3.886-2.067-3.907 2.025.766-4.33-3.136-3.086 4.36-.61 1.967-3.932 1.928 3.954zM205.946 100c-3.27 0-5.922 2.286-5.922 5.107 0 1.47.726 2.793 1.88 3.725-.217.595-.585 1.373-1.21 2.168 1.185 0 2.708-.165 3.88-.93.442.092.9.144 1.373.144 3.273 0 5.925-2.286 5.925-5.107 0-2.82-2.652-5.107-5.923-5.107z" fill="#666"/><path d="M200.026 353.21v5.837c0 .527.43.955.956.955h10.434c.527 0 .955-.428.955-.955v-5.837h-12.344zm12.345-1.138c0-.53-.426-.956-.954-.956h-5.137c-.53 0-1.063-.25-1.195-.557-.134-.31-.668-.558-1.195-.558h-2.433c-.527 0-1.06.25-1.193.557-.133.307-.24.983-.24 1.51v.183h12.344v-.184zm-51.677-196.126l-9.418-5.746c-.688-.443-1.25-.117-1.25.725v11.154c0 .84.562 1.167 1.25.724l9.416-5.746s.335-.232.335-.556c0-.324-.333-.556-.333-.556zm-2.077 96.344l3.125 3.124-7.496 7.497-3.125-3.125 7.497-7.497zm3.718 2.5l-3.092-3.094 1.325-1.325c.49-.49 1.28-.49 1.77 0l1.325 1.324c.488.488.488 1.28 0 1.767l-1.326 1.328zm-11.996 9.215l-.312-.313.82-2.616 2.11 2.11-2.618.82z" fill="#fff"/><path d="M208.626 180.5c0 .978-.683 1.77-1.528 1.77-.844 0-1.53-.792-1.53-1.77s.686-1.77 1.53-1.77c.845 0 1.53.792 1.53 1.77zm5.4-.29s-2.48 4.79-6.99 4.79c-4.188 0-7.01-4.79-7.01-4.79s2.595-4.21 7.01-4.21c4.488 0 6.99 4.21 6.99 4.21zm-4.212.288c0-1.74-1.218-3.148-2.72-3.148-1.5 0-2.717 1.41-2.717 3.148 0 1.738 1.22 3.15 2.72 3.15 1.5 0 2.72-1.41 2.72-3.15z" fill="#666"/><path d="M68.484 301.78c-.68.3-1.41.505-2.175.596.78-.47 1.382-1.21 1.664-2.095-.732.433-1.542.748-2.404.918-.69-.736-1.675-1.196-2.764-1.196-2.445 0-4.242 2.28-3.69 4.65-3.146-.157-5.937-1.665-7.804-3.956-.992 1.702-.515 3.93 1.172 5.056-.62-.018-1.205-.19-1.716-.473-.04 1.754 1.217 3.394 3.038 3.76-.533.145-1.117.18-1.71.065.48 1.505 1.88 2.6 3.537 2.63-1.592 1.247-3.597 1.805-5.606 1.568 1.678 1.076 3.668 1.703 5.807 1.703 7.03 0 11.003-5.938 10.763-11.264.738-.534 1.38-1.2 1.888-1.96z" fill="#fff"/><path d="M161.456 109.145c0 2.522-2.05 4.57-4.572 4.57-2.522 0-4.57-2.048-4.57-4.57 0-2.522 2.048-4.572 4.57-4.572h2.286l.013 2.3 3.436-3.44-3.437-3.43v2.287h-2.3c-3.784 0-6.856 3.07-6.856 6.857 0 3.787 3.074 6.856 6.86 6.856 3.786 0 6.857-3.07 6.857-6.857h-2.285z" fill="#666"/><path d="M156.776 51.8l2.456 2.454-5.89 5.89-2.456-2.453 5.89-5.892zm2.922 1.963l-2.43-2.43 1.04-1.04c.385-.383 1.007-.383 1.39 0l1.04 1.04c.385.386.385 1.007 0 1.39l-1.04 1.04zm-9.425 7.243l-.246-.245.646-2.055 1.657 1.658-2.056.644z" fill="gray"/><g fill="#fff"><path d="M214.103 56.472c-.532-.538-1.24-.866-1.986-.934.647-.58 1.057-1.42 1.057-2.358 0-1.755-1.424-3.178-3.178-3.178-1.677 0-3.05 1.297-3.168 2.942 1.492.645 2.54 2.13 2.54 3.857 0 .63-.143 1.245-.41 1.804.383.2.738.46 1.048.772.792.795 1.243 1.897 1.232 3.02v.043l-.03.53h3.79l.03-4.198c.008-.86-.33-1.682-.934-2.29z"/><path d="M207.276 59.17c.646-.58 1.056-1.42 1.056-2.36 0-1.753-1.423-3.176-3.178-3.176s-3.177 1.423-3.177 3.177c0 .934.408 1.774 1.053 2.358-1.652.128-2.956 1.495-2.97 3.18l-.03.632h10.136l.03-.585c.007-.856-.33-1.682-.935-2.29-.535-.54-1.24-.867-1.985-.935z"/></g><path d="M106.826 256.002v2.4h3.872c-.155 1.03-1.17 3.02-3.867 3.02-2.326 0-4.226-1.98-4.226-4.42 0-2.442 1.896-4.423 4.223-4.423 1.328 0 2.215.58 2.72 1.08l1.853-1.83c-1.19-1.142-2.73-1.83-4.57-1.83-3.772 0-6.82 3.126-6.82 7 0 3.87 3.05 7 6.82 7 3.937 0 6.547-2.84 6.547-6.84 0-.46-.05-.813-.108-1.16zm13.182 0h-1.95V254h-1.95v2h-1.946v2h1.95v2.002h1.948v-2h1.948" fill="#555" fill-rule="evenodd"/><path d="M106.826 306.002v2.4h3.872c-.155 1.03-1.17 3.02-3.867 3.02-2.326 0-4.226-1.98-4.226-4.42 0-2.442 1.896-4.423 4.223-4.423 1.328 0 2.215.58 2.72 1.08l1.853-1.83c-1.19-1.142-2.73-1.83-4.57-1.83-3.772 0-6.82 3.126-6.82 7 0 3.87 3.05 7 6.82 7 3.937 0 6.547-2.84 6.547-6.84 0-.46-.05-.813-.108-1.16zm13.182 0h-1.95V304h-1.95v2h-1.946v2h1.95v2.002h1.948v-2h1.948" fill="#fff" fill-rule="evenodd"/><g fill="#636363"><path d="M57.526 159.057c2.773 0 3.77-2.52 4.032-4.588.322-2.55-1.007-4.468-4.03-4.468-3.024 0-4.353 1.918-4.032 4.467.262 2.07 1.26 4.59 4.03 4.587z"/><path d="M65.026 165.055c-.03-.803-.134-1.61-.288-2.4-.187-.957-.426-2.36-1.347-2.985-.53-.36-1.22-.48-1.83-.696-.298-.106-.564-.21-.813-.33-.84.837-1.94 1.276-3.22 1.276-1.277 0-2.375-.44-3.22-1.277-.247.12-.513.227-.81.333-.61.217-1.3.335-1.832.696-.92.623-1.16 2.027-1.347 2.984-.153.79-.257 1.597-.287 2.4-.022.622.316.71.89.897.72.236 1.46.41 2.205.553 1.44.276 2.927.49 4.406.498 1.48-.01 2.966-.22 4.407-.497.746-.143 1.487-.317 2.205-.552.575-.187.913-.274.89-.896z"/></g><path d="M22.916 212.706l-2.89.045.03-6.394s2.46.185 3.06-.075c.502-.13 3.833-1.93 4.84-2.963.85-.762 1.14-1.543 1.468-2.554.262-1.02 1.218-.8 1.637-.56.548.317.615 1.025.558 1.604-.073.44-.275 1.125-.604 1.744-.253.477-.674.886-.775 1.054-.13.206-.644.605-.443.67 1.097.246 1.603.314 3.16.728.59.326.733.417.9 1.035.12.635-.223 1.375-.753 1.85-.1.056-.554.625-.554.625s-1.172 3.304-1.785 4.005c-.39.348-.657.43-1.107.485-.28 0-1.49-.056-2.857-.224-1.647-.257-2.725-1.038-3.88-1.072zm61.817-7.326l-3.695 3.56.84 5.062-4.53-2.412-4.56 2.363.896-5.05-3.657-3.6 5.087-.71 2.296-4.59 2.247 4.613z" fill="#fff"/><path d="M202.533 210.892l-2.506.038.028-5.48s2.133.16 2.653-.064c.437-.112 3.327-1.654 4.2-2.54.736-.655.99-1.324 1.274-2.19.227-.876 1.056-.688 1.42-.48.474.27.532.878.482 1.374-.062.378-.237.964-.523 1.494-.22.41-.584.76-.67.903-.11.177-.558.52-.384.576.95.21 1.39.27 2.74.625.51.277.635.356.78.885.105.543-.194 1.178-.653 1.585-.087.048-.48.536-.48.536s-1.017 2.835-1.55 3.435c-.337.3-.57.37-.96.415-.244 0-1.29-.047-2.478-.19-1.43-.22-2.365-.89-3.368-.92z" fill="#666"/><path d="M227.026 250c-3.865 0-7 2.702-7 6.036 0 1.738.86 3.3 2.223 4.402-.258.703-.693 1.622-1.43 2.562 1.4 0 3.2-.195 4.586-1.098.52.108 1.062.17 1.62.17 3.867 0 7-2.703 7-6.036 0-3.333-3.133-6.036-7-6.036z" fill="#fff"/><path d="M3.3 212.174l-2.615.04.027-5.79s2.227.17 2.77-.067c.454-.12 3.47-1.75 4.38-2.686.77-.69 1.03-1.396 1.33-2.314.237-.923 1.103-.725 1.482-.505.495.287.555.928.504 1.453-.066.4-.25 1.02-.547 1.58-.228.43-.61.802-.7.954-.116.186-.583.547-.4.61.992.22 1.45.28 2.86.656.532.293.663.376.813.935.11.576-.2 1.247-.68 1.678-.09.05-.502.566-.502.566s-1.06 2.994-1.616 3.63c-.352.315-.594.39-1 .44-.256 0-1.35-.05-2.588-.204-1.493-.232-2.47-.94-3.515-.97z" fill="none" stroke="#fff" stroke-width="1.316"/><path d="M64.026 205.532l-3.36 3.237.765 4.6-4.12-2.192-4.142 2.148.814-4.592-3.326-3.275 4.623-.646 2.088-4.172 2.043 4.195z" fill="none" stroke="#fff" stroke-width="1.273" stroke-linejoin="round"/><path d="M162.46 209.778c-.734 0-1.393.313-1.86.814l-5.468-2.723c.02-.128.032-.258.032-.39 0-.13-.013-.258-.03-.38l5.46-2.695c.467.505 1.13.82 1.865.82 1.417 0 2.567-1.168 2.567-2.61 0-1.444-1.15-2.613-2.566-2.613-1.415 0-2.57 1.17-2.57 2.612 0 .13.015.256.03.38l-5.456 2.693c-.468-.504-1.13-.82-1.866-.82-1.42 0-2.57 1.17-2.57 2.612 0 1.442 1.15 2.61 2.57 2.61.733 0 1.39-.315 1.86-.815l5.467 2.723c-.02.127-.032.257-.032.39 0 1.443 1.15 2.612 2.568 2.612 1.42 0 2.57-1.17 2.57-2.613s-1.15-2.612-2.57-2.612z" fill="#777"/><path d="M157.52 300.002c-4.142 0-7.5 3.358-7.5 7.5 0 3.07 1.847 5.71 4.49 6.87-.022-.524-.005-1.153.13-1.723l.964-4.087s-.24-.477-.24-1.185c0-1.112.645-1.942 1.448-1.942.682 0 1.01.512 1.01 1.126 0 .685-.436 1.71-.66 2.66-.19.797.398 1.445 1.183 1.445 1.42 0 2.376-1.825 2.376-3.987 0-1.644-1.106-2.874-3.12-2.874-2.275 0-3.693 1.696-3.693 3.59 0 .655.193 1.116.495 1.472.14.164.158.23.108.418l-.153.602c-.05.19-.204.258-.376.188-1.046-.428-1.534-1.575-1.534-2.865 0-2.13 1.798-4.685 5.36-4.685 2.865 0 4.75 2.072 4.75 4.296 0 2.94-1.637 5.14-4.048 5.14-.81 0-1.57-.44-1.832-.935 0 0-.434 1.73-.527 2.062-.16.58-.47 1.156-.756 1.606.675.2 1.387.308 2.126.308 4.142 0 7.5-3.357 7.5-7.5 0-4.14-3.358-7.5-7.5-7.5zM15 302.502c0-1.312-1.186-2.5-2.5-2.5h-10c-1.313 0-2.5 1.188-2.5 2.5v10c0 1.315 1.187 2.5 2.5 2.5h5v-5.665H5.67v-2.5H7.5v-.976c0-1.68 1.262-3.193 2.812-3.193h2.022v2.5h-2.024c-.22 0-.478.27-.478.672v.994h2.5v2.5h-2.5v5.668H12.5c1.312 0 2.5-1.185 2.5-2.5v-10z" fill="#fff"/><path d="M15 252.502c0-1.312-1.186-2.5-2.5-2.5h-10c-1.313 0-2.5 1.188-2.5 2.5v10c0 1.315 1.187 2.5 2.5 2.5h5v-5.665H5.67v-2.5H7.5v-.976c0-1.68 1.263-3.193 2.813-3.193h2.022v2.5H10.31c-.22 0-.477.27-.477.672v.994h2.5v2.5h-2.5v5.668h2.665c1.313 0 2.5-1.185 2.5-2.5v-10z" fill="#555"/><path d="M108.76 234.002h-8.75c-1.725 0-3.124 1.4-3.124 3.125v8.75c0 1.725 1.4 3.125 3.125 3.125h8.75c1.727 0 3.126-1.4 3.126-3.125v-8.75c0-1.726-1.4-3.125-3.125-3.125zm-6.457 10.417c-1.613 0-2.917-1.306-2.917-2.918 0-1.613 1.304-2.917 2.917-2.917.787 0 1.446.287 1.954.762l-.79.763c-.216-.208-.596-.45-1.162-.45-.996 0-1.808.825-1.808 1.842 0 1.017.81 1.842 1.807 1.842 1.154 0 1.587-.83 1.654-1.258h-1.652v-1h2.754c.026.145.047.29.047.483 0 1.665-1.118 2.85-2.8 2.85zm7.083-2.5h-1.25v1.25h-.834v-1.25h-1.25v-.834h1.25v-1.25h.834v1.25h1.25v.833z" fill="none"/><path d="M104.16 350.002c-2.3 0-4.156 1.803-4.156 4.03v6.94c0 2.227 1.858 4.03 4.157 4.03h6.688c2.3 0 4.156-1.803 4.156-4.03v-6.94c0-2.227-1.857-4.03-4.156-4.03h-6.687zm7.5 2.406c.553 0 1 .448 1 1 0 .553-.447 1-1 1-.552 0-1-.447-1-1 0-.552.448-1 1-1zm-4.156 1.063c2.21 0 4 1.79 4 4 0 2.208-1.79 4-4 4s-4-1.792-4-4c0-2.21 1.79-4 4-4zm0 1.5c-1.39 0-2.53 1.14-2.53 2.53s1.14 2.53 2.53 2.53c1.392 0 2.532-1.14 2.532-2.53s-1.14-2.53-2.532-2.53z" fill="#555"/><path d="M204.162 300.002c-2.298 0-4.156 1.803-4.156 4.03v6.94c0 2.227 1.858 4.03 4.156 4.03h6.688c2.298 0 4.156-1.803 4.156-4.03v-6.94c0-2.227-1.858-4.03-4.156-4.03h-6.688zm7.5 2.406c.552 0 1 .448 1 1 0 .553-.448 1-1 1s-1-.447-1-1c0-.552.448-1 1-1zm-4.156 1.063c2.21 0 4 1.79 4 4 0 2.208-1.79 4-4 4s-4-1.792-4-4c0-2.21 1.79-4 4-4zm0 1.5c-1.39 0-2.53 1.14-2.53 2.53s1.14 2.53 2.53 2.53 2.53-1.14 2.53-2.53-1.14-2.53-2.53-2.53z" fill="#fff"/><path d="M19.598 117.762l-5.212-5.235c2.18-2.903 1.912-7.312-.573-9.95-2.387-2.676-6.647-3.385-9.746-1.562-2.978 1.658-4.64 5.364-3.83 8.7.76 3.49 4.08 6.228 7.657 6.18 1.647.007 3.292-.53 4.628-1.5 1.77 1.77 3.528 3.555 5.305 5.317 1.073.954 2.937-.65 1.903-1.8l-.133-.15zm-11.636-3.74c-3.072.085-5.9-2.565-6.044-5.65-.24-2.89 1.853-5.773 4.697-6.36 2.74-.653 5.82.864 6.906 3.49 1.185 2.662.175 6.118-2.35 7.606-.957.596-2.08.92-3.204.915z" fill="#636363"/></svg>